<svg width="512" height="512" viewBox="0 0 512 512"
     xmlns="http://www.w3.org/2000/svg">

  <defs>
    <linearGradient id="pGradient" x1="0%" y1="0%" x2="100%" y2="100%">
      <stop offset="0%" stop-color="#0b1220"/>
      <stop offset="55%" stop-color="#2563eb"/>
      <stop offset="100%" stop-color="#60a5fa"/>
    </linearGradient>
  </defs>

  <path
    fill="url(#pGradient)"
    fill-rule="evenodd"
    d="
      M120 48
      H320
      C420 48 472 100 472 176
      C472 252 420 304 320 304
      H228
      C212 304 200 316 200 332
      V440
      C200 472 176 496 144 496
      C112 496 88 472 88 440
      V120
      C88 80 104 56 120 48
      Z

      M228 120
      H312
      C360 120 392 148 392 176
      C392 204 360 232 312 232
      H228
      C216 232 208 224 208 212
      V140
      C208 128 216 120 228 120
      Z
    "
  />
</svg>
